HIERARCHY
ROOT Hips
{
	OFFSET 0.00000 0.00000 0.00000
	CHANNELS 6 Xposition Yposition Zposition Zrotation Yrotation Xrotation 
	JOINT LHipJoint
	{
		OFFSET 0 0 0
		CHANNELS 3 Zrotation Yrotation Xrotation
		JOINT LeftUpLeg
		{
			OFFSET 1.70593 -1.62653 0.87602
			CHANNELS 3 Zrotation Yrotation Xrotation
			JOINT LeftLeg
			{
				OFFSET 2.32330 -6.38322 0.00000
				CHANNELS 3 Zrotation Yrotation Xrotation
				JOINT LeftFoot
				{
					OFFSET 2.45016 -6.73177 0.00000
					CHANNELS 3 Zrotation Yrotation Xrotation
					JOINT LeftToeBase
					{
						OFFSET 0.13029 -0.35798 1.96980
						CHANNELS 3 Zrotation Yrotation Xrotation
						End Site
						{
							OFFSET 0.00000 -0.00000 1.01270
						}
					}
				}
			}
		}
	}
	JOINT RHipJoint
	{
		OFFSET 0 0 0
		CHANNELS 3 Zrotation Yrotation Xrotation
		JOINT RightUpLeg
		{
			OFFSET -1.80599 -1.62652 0.87602
			CHANNELS 3 Zrotation Yrotation Xrotation
			JOINT RightLeg
			{
				OFFSET -2.45375 -6.74162 0.00000
				CHANNELS 3 Zrotation Yrotation Xrotation
				JOINT RightFoot
				{
					OFFSET -2.45828 -6.75406 0.00000
					CHANNELS 3 Zrotation Yrotation Xrotation
					JOINT RightToeBase
					{
						OFFSET -0.13801 -0.37917 1.88456
						CHANNELS 3 Zrotation Yrotation Xrotation
						End Site
						{
							OFFSET -0.00000 -0.00000 0.97281
						}
					}
				}
			}
		}
	}
	JOINT LowerBack
	{
		OFFSET 0 0 0
		CHANNELS 3 Zrotation Yrotation Xrotation
		JOINT Spine
		{
			OFFSET 0.01003 2.00576 -0.14267
			CHANNELS 3 Zrotation Yrotation Xrotation
			JOINT Spine1
			{
				OFFSET 0.00908 2.01191 0.01660
				CHANNELS 3 Zrotation Yrotation Xrotation
				JOINT Neck
				{
					OFFSET 0 0 0
					CHANNELS 3 Zrotation Yrotation Xrotation
					JOINT Neck1
					{
						OFFSET -0.05849 1.60301 0.18934
						CHANNELS 3 Zrotation Yrotation Xrotation
						JOINT Head
						{
							OFFSET 0.01775 1.59435 -0.07960
							CHANNELS 3 Zrotation Yrotation Xrotation
							End Site
							{
								OFFSET 0.01210 1.70732 -0.05248
							}
						}
					}
				}
				JOINT LeftShoulder
				{
					OFFSET 0 0 0
					CHANNELS 3 Zrotation Yrotation Xrotation
					JOINT LeftArm
					{
						OFFSET 3.15315 1.26460 0.30667
						CHANNELS 3 Zrotation Yrotation Xrotation
						JOINT LeftForeArm
						{
							OFFSET 4.97694 -0.00000 -0.00000
							CHANNELS 3 Zrotation Yrotation Xrotation
							JOINT LeftHand
							{
								OFFSET 3.14391 -0.00000 -0.00000
								CHANNELS 3 Zrotation Yrotation Xrotation
								JOINT LeftFingerBase
								{
									OFFSET 0 0 0
									CHANNELS 3 Zrotation Yrotation Xrotation
									JOINT LeftHandIndex1
									{
										OFFSET 0.59358 -0.00000 -0.00000
										CHANNELS 3 Zrotation Yrotation Xrotation
										End Site
										{
											OFFSET 0.47856 -0.00000 -0.00000
										}
									}
								}
								JOINT LThumb
								{
									OFFSET 0 0 0
									CHANNELS 3 Zrotation Yrotation Xrotation
									End Site
									{
										OFFSET 0.48587 -0.00000 0.48587
									}
								}
							}
						}
					}
				}
				JOINT RightShoulder
				{
					OFFSET 0 0 0
					CHANNELS 3 Zrotation Yrotation Xrotation
					JOINT RightArm
					{
						OFFSET -3.25568 1.35581 0.18982
						CHANNELS 3 Zrotation Yrotation Xrotation
						JOINT RightForeArm
						{
							OFFSET -4.90473 -0.00000 0.00000
							CHANNELS 3 Zrotation Yrotation Xrotation
							JOINT RightHand
							{
								OFFSET -3.21621 0.00006 -0.00004
								CHANNELS 3 Zrotation Yrotation Xrotation
								JOINT RightFingerBase
								{
									OFFSET 0 0 0
									CHANNELS 3 Zrotation Yrotation Xrotation
									JOINT RightHandIndex1
									{
										OFFSET -0.62353 -0.00000 -0.00000
										CHANNELS 3 Zrotation Yrotation Xrotation
										End Site
										{
											OFFSET -0.50270 -0.00000 -0.00000
										}
									}
								}
								JOINT RThumb
								{
									OFFSET 0 0 0
									CHANNELS 3 Zrotation Yrotation Xrotation
									End Site
									{
										OFFSET -0.51038 -0.00000 0.51038
									}
								}
							}
						}
					}
				}
			}
		}
	}
}
MOTION
Frames: 4
Frame Time: .0083333
7.514300 15.840800 -3.621800 5.383300 5.650900 7.397400 0.000000 0.000000 0.000000 -26.124100 4.926400 19.268500 0.000000 0.000000 0.000000 -0.108400 -7.679700 -2.528600 0.000100 -0.077600 -0.213300 0.000000 0.000000 0.000000 7.430500 17.547100 -41.767000 -1.454900 -7.624000 21.577800 -0.896800 7.334900 -16.930400 -0.165900 2.624300 -7.234400 -6.067700 -0.394600 0.235300 0.601200 -0.638800 -3.298500 4.046700 -0.130000 -3.475800 -3.406000 -0.358700 -11.056800 -0.007800 0.062800 9.516300 0.554000 -0.094300 4.663400 -0.000000 0.000000 0.000000 -85.792000 -22.012100 38.010300 36.825300 -46.072400 -16.114100 -0.000000 0.000000 -28.964800 24.789100 -13.240500 -6.038200 -7.125000 0.000000 -0.000000 -1.755100 15.454500 1.224600 -0.000000 0.000000 0.000000 100.262000 -29.432400 -32.901100 -7.436000 12.634500 -0.824400 0.000000 0.000000 27.763300 -18.890100 -39.581100 12.299700 7.125000 -0.000000 -0.000000 24.423300 -69.715900 -14.743600
7.514100 15.793200 -3.363600 5.281300 5.459300 7.236800 0.000000 0.000000 0.000000 -25.823700 5.352500 20.350900 0.000000 0.000000 0.000000 -0.123500 -7.228400 -1.288900 0.009400 0.626300 1.721000 0.000000 0.000000 0.000000 7.795700 17.628300 -41.647300 -1.604700 -7.989000 22.680700 -0.836600 7.724900 -16.397700 -0.241700 3.163700 -8.734900 -5.752900 -0.317000 0.257100 0.703000 -0.526000 -3.269700 3.972000 -0.082100 -3.470500 -3.708500 -0.606000 -11.110200 0.078500 -0.229800 9.463900 0.608500 -0.242900 4.661800 0.000000 0.000000 0.000000 -85.473400 -21.772900 38.452200 38.287500 -47.021900 -17.175600 -0.000000 0.000000 -29.520300 25.423500 -13.518800 -6.340500 -7.125000 0.000000 -0.000000 -1.339400 15.075900 0.945200 0.000000 0.000000 0.000000 100.420300 -29.797800 -34.387600 -7.420400 12.609100 -0.821000 0.000000 0.000000 28.197200 -18.618800 -39.369100 12.062800 7.125000 -0.000000 -0.000000 24.427600 -69.444000 -14.599900
7.513700 15.748000 -3.106100 4.918700 5.485600 6.976700 0.000000 0.000000 0.000000 -25.208200 5.623200 21.547800 0.000000 -0.000000 -0.000000 -0.121000 -6.711600 -0.399000 0.007300 -0.551000 -1.514000 0.000000 0.000000 0.000000 8.419300 17.693100 -41.239100 -1.755800 -8.337800 23.744900 -0.706400 8.548200 -15.245600 -0.143800 2.444000 -6.734400 -5.082200 -0.334600 0.464000 0.852600 -0.542700 -3.309600 3.752400 -0.102600 -3.627100 -3.902800 -0.353100 -10.637800 0.330500 0.085300 8.922500 0.739600 -0.072200 4.410300 0.000000 -0.000000 0.000000 -85.266600 -21.306000 38.547700 39.719500 -47.902900 -18.230900 -0.000000 0.000000 -29.988900 26.161300 -13.767700 -6.667800 -7.125000 0.000000 -0.000000 -0.854100 14.711700 0.609300 0.000000 -0.000000 0.000000 100.425400 -30.376700 -34.503900 -7.450900 12.658900 -0.827600 0.000000 0.000000 27.469800 -17.901800 -39.401900 11.587500 7.125000 -0.000000 -0.000000 25.325000 -69.243600 -15.048100
7.511200 15.713000 -2.842300 4.785900 5.393800 6.806700 0.000000 0.000000 0.000000 -24.863900 5.921200 22.578100 0.000000 0.000000 0.000000 -0.104800 -5.964500 0.418200 0.193900 -2.835800 -7.821900 0.000000 0.000000 0.000000 9.176900 17.338400 -40.914200 -1.909800 -8.675500 24.785500 -0.492400 8.319500 -12.945700 -0.064300 1.635800 -4.500200 -4.601100 -0.323900 0.400700 0.880400 -0.511300 -3.232900 3.507900 -0.105300 -3.515000 -3.817500 -0.114800 -10.467000 0.216400 0.392600 8.476200 0.710200 0.081100 4.238800 0.000000 0.000000 0.000000 -85.055800 -20.824300 38.444600 41.222400 -48.777700 -19.353700 -0.000000 0.000000 -30.179000 26.756300 -14.168000 -7.035100 -7.125000 0.000000 -0.000000 -0.482000 14.193700 0.349100 0.000000 0.000000 0.000000 100.415000 -30.747500 -34.162700 -7.486200 12.716500 -0.835400 0.000000 0.000000 26.514900 -17.381300 -39.470800 11.253900 7.125000 -0.000000 -0.000000 26.038300 -69.137600 -15.431300
